HIERARCHY
ROOT root
{
	OFFSET 0.000000 0.000000 0.000000
	CHANNELS 6 Xposition Yposition Zposition Zrotation Yrotation Xrotation
	JOINT lhip
	{
		OFFSET 0.058581 -0.082280 -0.017664
		CHANNELS 3 Zrotation Yrotation Xrotation
		JOINT lknee
		{
			OFFSET 0.043451 -0.386469 0.008037
			CHANNELS 3 Zrotation Yrotation Xrotation
			JOINT lankle
			{
				OFFSET -0.014790 -0.426874 -0.037428
				CHANNELS 3 Zrotation Yrotation Xrotation
				JOINT ltoe
				{
					OFFSET 0.041054 -0.060286 0.122042
					CHANNELS 3 Zrotation Yrotation Xrotation
					End Site
					{
						OFFSET 0.000000 0.000000 0.000000
					}
				}
			}
		}
	}
	JOINT rhip
	{
		OFFSET -0.060310 -0.090513 -0.013543
		CHANNELS 3 Zrotation Yrotation Xrotation
		JOINT rknee
		{
			OFFSET -0.043257 -0.383688 -0.004843
			CHANNELS 3 Zrotation Yrotation Xrotation
			JOINT rankle
			{
				OFFSET 0.019056 -0.420046 -0.034562
				CHANNELS 3 Zrotation Yrotation Xrotation
				JOINT rtoe
				{
					OFFSET -0.034840 -0.062106 0.130323
					CHANNELS 3 Zrotation Yrotation Xrotation
					End Site
					{
						OFFSET 0.000000 0.000000 0.000000
					}
				}
			}
		}
	}
	JOINT lowerback
	{
		OFFSET 0.004439 0.124404 -0.038385
		CHANNELS 3 Zrotation Yrotation Xrotation
		JOINT upperback
		{
			OFFSET 0.004488 0.137956 0.026820
			CHANNELS 3 Zrotation Yrotation Xrotation
			JOINT chest
			{
				OFFSET -0.002265 0.056032 0.002855
				CHANNELS 3 Zrotation Yrotation Xrotation
				JOINT lowerneck
				{
					OFFSET -0.013390 0.211636 -0.033468
					CHANNELS 3 Zrotation Yrotation Xrotation
					JOINT upperneck
					{
						OFFSET 0.010113 0.088937 0.050410
						CHANNELS 3 Zrotation Yrotation Xrotation
						End Site
						{
							OFFSET 0.000000 0.000000 0.000000
						}
					}
				}
				JOINT lclavicle
				{
					OFFSET 0.071702 0.114000 -0.018898
					CHANNELS 3 Zrotation Yrotation Xrotation
					JOINT lshoulder
					{
						OFFSET 0.122921 0.045205 -0.019046
						CHANNELS 3 Zrotation Yrotation Xrotation
						JOINT lelbow
						{
							OFFSET 0.255332 -0.015649 -0.022946
							CHANNELS 3 Zrotation Yrotation Xrotation
							JOINT lwrist
							{
								OFFSET 0.265709 0.012698 -0.007375
								CHANNELS 3 Zrotation Yrotation Xrotation
								End Site
								{
									OFFSET 0.000000 0.000000 0.000000
								}
							}
						}
					}
				}
				JOINT rclavicle
				{
					OFFSET -0.082954 0.112472 -0.023707
					CHANNELS 3 Zrotation Yrotation Xrotation
					JOINT rshoulder
					{
						OFFSET -0.113228 0.046853 -0.008472
						CHANNELS 3 Zrotation Yrotation Xrotation
						JOINT relbow
						{
							OFFSET -0.260127 -0.014369 -0.031269
							CHANNELS 3 Zrotation Yrotation Xrotation
							JOINT rwrist
							{
								OFFSET -0.269108 0.006794 -0.006027
								CHANNELS 3 Zrotation Yrotation Xrotation
								End Site
								{
									OFFSET 0.000000 0.000000 0.000000
								}
							}
						}
					}
				}
			}
		}
	}
}
MOTION
Frames: 5
Frame Time: 0.033333
1.151690 0.745852 0.978277 -103.726724 0.476216 85.427651 0.876026 1.059059 -0.494187 -1.273283 1.265915 15.243708 3.001943 15.253192 -19.659808 0.000000 -0.000000 0.000000 2.929526 4.193435 -4.479801 -2.159367 4.647651 18.209035 2.488050 -4.744004 -18.214559 0.000000 -0.000000 0.000000 -1.808135 1.270637 11.080632 0.385461 -1.855001 -0.363076 -0.562307 -0.510408 1.982189 5.362908 7.553868 -8.486301 2.028443 -2.533231 6.410451 -26.524333 -6.211986 -0.038158 -52.739527 -11.218584 11.595050 1.561384 -26.061222 5.985003 -4.369966 -2.185376 -2.398315 25.808883 5.893124 -0.276890 59.640495 4.452470 18.705487 -15.275115 32.211267 0.368114 5.313316 1.062803 -0.422124 
1.152692 0.746036 0.978640 -103.972006 0.404880 85.627922 0.874727 1.052126 -0.800105 -1.349581 1.334462 15.346377 3.002568 15.459371 -19.594497 0.000000 -0.000000 0.000000 2.837927 4.434601 -4.840065 -1.987995 4.762818 18.336812 2.609251 -4.803605 -18.222785 0.000000 -0.000000 0.000000 -2.001042 1.332330 10.980293 0.507085 -2.002669 -0.133740 -0.502021 -0.590754 2.030897 5.315229 7.654265 -8.787342 1.935312 -2.293189 5.843843 -26.268350 -6.052232 -0.174563 -52.346680 -11.563512 11.090791 2.319737 -26.071369 4.443360 -4.129012 -1.939294 -2.417854 25.665485 5.678266 -0.635029 59.299676 4.614495 18.543132 -17.186045 33.162547 -1.519738 5.953715 0.753909 -1.304790 
1.153585 0.746244 0.978672 -104.243758 0.328842 85.914459 0.763111 1.177905 -0.941929 -1.215922 1.473034 14.929401 2.984583 15.418285 -19.459104 0.000000 -0.000000 0.000000 2.881120 4.713894 -5.351557 -2.065696 4.905122 18.556726 2.566099 -4.975324 -18.384338 0.000000 -0.000000 0.000000 -1.987808 1.318559 11.633799 0.451474 -1.808092 -0.912506 -0.447995 -0.812677 1.923527 5.314014 7.746773 -8.927264 1.932616 -2.147629 5.723386 -26.089107 -5.861575 -0.400574 -51.852977 -11.403298 10.505469 2.940414 -25.860996 3.818042 -3.683532 -2.289017 -2.353048 25.374475 5.154102 -0.769430 58.980414 4.758681 17.966760 -18.569522 34.038730 -3.134928 4.540560 1.178120 -1.689429 
1.154783 0.746944 0.978736 -104.239497 0.361147 86.305658 0.962037 1.376662 -1.334758 -1.373479 1.260858 14.705289 2.937273 15.315062 -19.304967 0.000000 -0.000000 0.000000 2.922733 4.671644 -5.831874 -1.975006 4.940322 18.435728 2.441591 -4.990197 -18.173651 0.000000 -0.000000 0.000000 -1.978668 1.126562 11.621794 0.470239 -2.014902 -0.766797 -0.462170 -0.708647 1.911122 5.185986 7.869963 -9.252524 1.948943 -1.951293 5.027432 -25.640919 -5.971241 -0.447037 -51.061358 -11.601856 9.915948 3.715474 -25.209939 3.040931 -3.278365 -2.134725 -2.679857 24.914734 5.041372 -0.856175 58.427137 4.752620 17.009706 -20.052642 33.083453 -5.001224 4.162710 0.787567 -2.764456 
1.155714 0.747435 0.979031 -104.070914 0.312336 86.734164 1.029446 1.276026 -1.618069 -1.444165 1.297873 14.179037 2.923000 15.177026 -19.226988 0.000000 -0.000000 0.000000 2.845169 4.602146 -6.280020 -1.920084 4.922170 18.284220 2.511093 -5.076549 -18.036138 0.000000 -0.000000 0.000000 -2.032896 1.101599 11.270997 0.501139 -2.196061 -0.577457 -0.511743 -0.689818 1.954318 5.115897 8.080562 -9.418659 2.005212 -1.934670 4.827133 -25.448399 -6.085894 -0.427727 -50.411412 -11.671346 9.535518 4.113660 -24.910018 2.200890 -3.812865 -2.034418 -2.618531 24.962200 5.047567 -0.609195 57.758278 4.998032 16.311610 -21.350375 32.301442 -6.113325 4.986472 0.592318 -2.077221 
